<?xml version="1.0" encoding="iso-8859-1"?>
<!-- Generator: Adobe Illustrator 19.0.0, SVG Export Plug-In . SVG Version: 6.00 Build 0)  -->
<svg version="1.1" id="Layer_1" xmlns="http://www.w3.org/2000/svg" xmlns:xlink="http://www.w3.org/1999/xlink" x="0px" y="0px"
	 viewBox="0 0 511.999 511.999" style="enable-background:new 0 0 511.999 511.999;" xml:space="preserve">
<g>
	<g>
		<path d="M484.493,251.583L463.93,231.02V35.367l17.277-17.277c3.387-3.387,3.387-8.879,0-12.265
			c-3.388-3.387-8.879-3.387-12.266,0l-17.277,17.277H256.009L235.447,2.54c-3.387-3.387-8.879-3.387-12.265,0
			c-3.387,3.387-3.387,8.879,0,12.265l19.684,19.684l-61.047,258.689c-5.034,6.29-6.719,14.675-4.361,22.506
			c2.624,8.713,9.793,15.249,18.71,17.059l38.93,7.902c7.38,1.499,13.658,6.164,17.22,12.8c3.562,6.636,3.982,14.444,1.153,21.423
			c-4.603,11.353-16.646,17.753-28.626,15.211L78.998,359.18c-21.96-4.654-44.101,7.813-51.516,28.997
			c-4.3,12.285-3.045,25.804,3.442,37.087c6.488,11.285,17.539,19.172,30.316,21.637l0.604,0.117
			c11.493,2.217,21.253,9.408,26.778,19.728c5.524,10.32,6.097,22.428,1.569,33.224c-1.853,4.418,0.227,9.5,4.644,11.353
			c1.096,0.459,2.232,0.677,3.35,0.677c3.39,0,6.609-2,8.001-5.322c6.556-15.634,5.728-33.173-2.274-48.119
			c-8.001-14.946-22.138-25.361-38.781-28.572l-0.604-0.117c-7.827-1.51-14.594-6.34-18.567-13.251s-4.741-15.189-2.107-22.713
			c4.54-12.973,18.105-20.603,31.547-17.757l145.844,30.899c20.223,4.285,40.531-6.508,48.297-25.663
			c4.775-11.776,4.066-24.95-1.945-36.145c-6.009-11.196-16.598-19.066-29.051-21.594l-38.93-7.902
			c-3.872-0.786-5.172-3.802-5.551-5.062c-0.308-1.02-0.745-3.332,0.581-5.657l257.894-60.858l19.684,19.684
			c1.694,1.693,3.915,2.541,6.134,2.541c2.219,0,4.44-0.846,6.134-2.541C487.879,260.462,487.879,254.97,484.493,251.583z
			 M434.317,40.448l-80.48,80.479l-80.481-80.479H434.317z M257.285,48.908l84.285,84.285L205.219,269.545L257.285,48.908z
			 M217.485,281.812L353.837,145.46l84.285,84.285L217.485,281.812z M446.582,213.673l-80.48-80.48l80.48-80.48V213.673z"/>
	</g>
</g>
<g>
</g>
<g>
</g>
<g>
</g>
<g>
</g>
<g>
</g>
<g>
</g>
<g>
</g>
<g>
</g>
<g>
</g>
<g>
</g>
<g>
</g>
<g>
</g>
<g>
</g>
<g>
</g>
<g>
</g>
</svg>
