<svg height="480pt" viewBox="0 -24 480 480" width="480pt" xmlns="http://www.w3.org/2000/svg"><path d="m479.9375 311.007812c-14.335938-115.007812-121.648438-132.046874-151.9375-134.558593v-104.449219c0-.71875-1.007812-72-88-72s-88 71.28125-88 72v104.449219c-30.289062 2.511719-137.558594 19.550781-151.9375 134.558593 0 .160157-.0625.800782-.0625.992188v32c0 4.417969 3.582031 8 8 8h40v16h-24c-4.417969 0-8 3.582031-8 8 0 19.367188 11.703125 56 56 56s56-36.632812 56-56c0-4.417969-3.582031-8-8-8h-24v-16h120v16h-24c-4.417969 0-8 3.582031-8 8 0 19.367188 11.703125 56 56 56s56-36.632812 56-56c0-4.417969-3.582031-8-8-8h-24v-16h120v16h-24c-4.417969 0-8 3.582031-8 8 0 19.367188 11.703125 56 56 56s56-36.632812 56-56c0-4.417969-3.582031-8-8-8h-24v-16h40c4.417969 0 8-3.582031 8-8v-32c0-.183594 0-.800781-.0625-.992188zm-311.9375-239.007812c0-2.289062.800781-56 72-56 70.703125 0 72 53.742188 72 56v104h-16v-48h-16v48h-112zm-75.199219 135.519531c21.234375-9.324219 44.027344-14.589843 67.199219-15.519531h160c23.171875.929688 45.964844 6.195312 67.199219 15.519531 40.34375 16.695313 68.992187 53.304688 75.496093 96.480469h-445.390624c6.503906-43.175781 35.152343-79.785156 75.496093-96.480469zm-20.800781 208.480469c-19.492188 1.464844-36.714844-12.605469-39.160156-32h78.28125c-2.539063 19.328125-19.675782 33.34375-39.121094 32zm8-48h-16v-16h16zm160 48c-19.492188 1.464844-36.714844-12.605469-39.160156-32h78.28125c-2.539063 19.328125-19.675782 33.34375-39.121094 32zm8-48h-16v-16h16zm160 48c-19.507812 1.488281-36.753906-12.589844-39.199219-32h78.320313c-2.539063 19.328125-19.675782 33.34375-39.121094 32zm8-48h-16v-16h16zm48-32h-448v-16h448zm0 0"/><path d="m240 208c-22.089844 0-40 17.910156-40 40s17.910156 40 40 40 40-17.910156 40-40c-.027344-22.082031-17.917969-39.972656-40-40zm0 64c-13.253906 0-24-10.746094-24-24s10.746094-24 24-24 24 10.746094 24 24-10.746094 24-24 24zm0 0"/><path d="m256 248c0 8.835938-7.164062 16-16 16s-16-7.164062-16-16 7.164062-16 16-16 16 7.164062 16 16zm0 0"/><path d="m280 96h16v16h-16zm0 0"/><path d="m280 72v8h16v-8c0-4.097656-1.601562-40-56-40v16c37.121094 0 40 18.398438 40 24zm0 0"/><path d="m168 240h16v16h-16zm0 0"/><path d="m136 240h16v16h-16zm0 0"/><path d="m296 240h16v16h-16zm0 0"/><path d="m328 240h16v16h-16zm0 0"/></svg>