<?xml version="1.0" encoding="iso-8859-1"?>
<!-- Generator: Adobe Illustrator 19.0.0, SVG Export Plug-In . SVG Version: 6.00 Build 0)  -->
<svg version="1.1" id="Capa_1" xmlns="http://www.w3.org/2000/svg" xmlns:xlink="http://www.w3.org/1999/xlink" x="0px" y="0px"
	 viewBox="0 0 512 512" style="enable-background:new 0 0 512 512;" xml:space="preserve">
<g>
	<g>
		<path d="M123.751,43.195c-4.195,0-7.597,3.401-7.597,7.597v3.214c0,4.195,3.401,7.597,7.597,7.597
			c4.195,0,7.597-3.401,7.597-7.597v-3.214C131.347,46.596,127.946,43.195,123.751,43.195z"/>
	</g>
</g>
<g>
	<g>
		<path d="M101.661,68.497h-3.213c-4.195,0-7.597,3.401-7.597,7.597c0,4.195,3.401,7.597,7.597,7.597h3.213
			c4.195,0,7.597-3.401,7.597-7.597C109.258,71.899,105.857,68.497,101.661,68.497z"/>
	</g>
</g>
<g>
	<g>
		<path d="M113.502,55.103l-2.273-2.272c-2.966-2.966-7.777-2.966-10.743,0.001c-2.966,2.967-2.966,7.777,0.001,10.743l2.273,2.272
			c1.483,1.483,3.427,2.225,5.371,2.225c1.944,0,3.889-0.742,5.372-2.226C116.469,62.879,116.469,58.069,113.502,55.103z"/>
	</g>
</g>
<g>
	<g>
		<path d="M113.503,86.343c-2.967-2.967-7.777-2.967-10.744,0l-2.273,2.273c-2.967,2.966-2.967,7.777,0,10.743
			c1.483,1.483,3.427,2.225,5.372,2.225c1.944,0,3.888-0.742,5.372-2.225l2.273-2.273C116.47,94.12,116.47,89.309,113.503,86.343z"
			/>
	</g>
</g>
<g>
	<g>
		<path d="M455.283,62.66H198.64c-2.896-16.251-11.011-31.135-23.281-42.473C161.272,7.169,142.943,0,123.751,0
			C81.792,0,47.656,34.136,47.656,76.095c0,41.959,34.136,76.095,76.095,76.095c7.704,0,15.274-1.17,22.579-3.445
			c11.447,10.8,25.63,18.879,41.648,23.045c10.348,2.691,18.21,11.231,20.027,21.757l9.656,55.933
			c3.412,19.762,14.408,36.893,30.964,48.238c12.553,8.602,20.047,22.628,20.047,37.52v114.004
			c-5.792,3.67-9.502,10.123-9.502,17.241c0,0.217,0.003,0.433,0.01,0.649c-18.981,3.88-34.615,7.453-46.483,10.623
			c-8.085,2.16-14.184,4.065-18.647,5.824c-4.158,1.639-11.898,4.69-11.898,11.771c0,9.515,12.371,11.139,22.311,12.445
			c8.54,1.122,20.371,2.056,35.165,2.779c24.992,1.221,50.31,1.424,50.563,1.426c0.019,0,0.038,0,0.057,0c0.019,0,0.039,0,0.057,0
			c0.253-0.002,25.571-0.206,50.563-1.426c14.794-0.723,26.625-1.657,35.165-2.779c9.94-1.306,22.311-2.93,22.311-12.445
			c0-7.526-6.94-11.408-32.288-18.057c-15.36-4.029-34.496-8.097-48.239-10.873c-0.016-5.485-2.197-10.611-5.993-14.382V335.237
			c0-14.892,7.495-28.918,20.048-37.52c16.555-11.345,27.551-28.476,30.963-48.238l9.656-55.933
			c1.817-10.526,9.678-19.066,20.027-21.757c34.701-9.024,60.8-36.391,69.054-70.089c0.032-0.13,0.066-0.258,0.092-0.39
			c1.743-7.249,2.679-14.782,2.679-22.493v-7.095C464.344,66.725,460.279,62.66,455.283,62.66z M123.751,136.996
			c-33.581,0-60.901-27.32-60.901-60.901c0-33.581,27.32-60.901,60.901-60.901c15.359,0,30.025,5.736,41.297,16.152
			c9.146,8.451,15.404,19.358,18.095,31.314h-7.781c-6.014-23.164-27.12-39.91-51.611-39.91c-29.415,0-53.345,23.931-53.345,53.345
			s23.931,53.345,53.345,53.345c2.19,0,4.385-0.148,6.571-0.421c1.458,2.379,3.019,4.69,4.676,6.931
			C131.306,136.644,127.548,136.996,123.751,136.996z M147.014,52.832c-2.966-2.966-7.777-2.966-10.743,0l-2.272,2.272
			c-2.046,2.045-2.68,4.967-1.905,7.556h-6.878c-4.997,0-9.062,4.065-9.062,9.062v7.095c0,7.709,0.935,15.24,2.678,22.487
			c0.027,0.141,0.063,0.278,0.097,0.416c1.049,4.278,2.376,8.457,3.982,12.506c-20.649-0.45-37.312-17.376-37.312-38.131
			c0-21.037,17.115-38.152,38.152-38.152c16.14,0,30.229,10.164,35.706,24.717h-11.673
			C149.944,59.689,149.693,55.511,147.014,52.832z M313.69,481.087c26.707,5.374,43.474,9.447,53.968,12.39
			c-19.192,1.885-49.979,3.119-77.409,3.329c-27.424-0.21-58.208-1.444-77.401-3.328c10.037-2.815,25.808-6.663,50.524-11.696
			c6.837-1.391,11.57-7.793,11.009-14.887c-0.011-0.136-0.017-0.274-0.017-0.413c0-2.353,1.591-4.422,3.87-5.033
			c3.322-0.889,5.632-3.899,5.632-7.338V335.237c0-10.003-2.518-19.703-7.139-28.33c4.246,0.276,8.882,0.416,13.522,0.416
			s9.276-0.14,13.522-0.416c-4.621,8.628-7.139,18.328-7.139,28.33v120.407c0,2.607,1.337,5.032,3.541,6.423
			c1.535,0.969,2.452,2.619,2.452,4.414c0,0.116-0.004,0.231-0.01,0.336C302.177,473.595,306.938,479.729,313.69,481.087z
			 M449.152,78.817h-0.001c0,4.567-0.384,9.061-1.122,13.45H219.328c-4.195,0-7.597,3.401-7.597,7.597
			c0,4.195,3.401,7.597,7.597,7.597h224.578c-9.084,23.988-29.295,42.886-55.209,49.624c-16.109,4.189-28.346,17.486-31.175,33.877
			l-9.656,55.933c-2.708,15.686-11.437,29.284-24.58,38.29c-2.038,1.397-8.09,4.659-9.194,5.151
			c-6.012,2.37-41.623,2.371-47.675,0.005c-1.101-0.487-7.16-3.755-9.204-5.155c-13.143-9.007-21.872-22.605-24.58-38.29
			l-9.656-55.933c-2.829-16.391-15.067-29.688-31.175-33.877c-14.663-3.813-27.497-11.523-37.529-21.84
			c-0.238-0.294-0.499-0.564-0.774-0.816c-7.327-7.747-13.096-16.907-16.906-26.968h47.39c4.195,0,7.597-3.401,7.597-7.597
			c0-4.195-3.401-7.597-7.597-7.597H132.47c-0.738-4.389-1.122-8.884-1.122-13.45v-0.964h317.804V78.817z"/>
	</g>
</g>
<g>
</g>
<g>
</g>
<g>
</g>
<g>
</g>
<g>
</g>
<g>
</g>
<g>
</g>
<g>
</g>
<g>
</g>
<g>
</g>
<g>
</g>
<g>
</g>
<g>
</g>
<g>
</g>
<g>
</g>
</svg>
